# xmcd
#
# Track frame offsets: 
#        150
#        14075
#        29775
#        45445
#        72852
#        87945
#        102187
#        123537
#        142437
#        164025
#        183340
#        201285
#        223640
#        232610
#        248717
#        262572
#
# Disc length: 3924 seconds
#
# Revision: 3
# Processed by: cddbd v1.5.2PL0 Copyright (c) Steve Scherf et al.
# Submitted via: ExactAudioCopyFreeDBPlugin 1.0
#
DISCID=e60f5210
DTITLE=Johnny Copeland - When The Rain Starts Fallin'
DYEAR=1987
DGENRE=Blues
TTITLE0=Midnight Fantasy
TTITLE1=Make My Home Where I Hang My Hat
TTITLE2=Down On Bended Knee
TTITLE3=Jessanne
TTITLE4=Bozalimalamu
TTITLE5=Devil's Hand
TTITLE6=Third Party
TTITLE7=Conakry
TTITLE8=Old Man Blues
TTITLE9=When the Rain Starts Fallin
TTITLE10=Same Thing
TTITLE11=I Wish I Was Single
TTITLE12=Rock n Roll Lilly
TTITLE13=North Caroline
TTITLE14=Big Time
TTITLE15=St Louis Blues
EXTD=
EXTT0=
EXTT1=
EXTT2=
EXTT3=
EXTT4=
EXTT5=
EXTT6=
EXTT7=
EXTT8=
EXTT9=
EXTT10=
EXTT11=
EXTT12=
EXTT13=
EXTT14=
EXTT15=
PLAYORDER=
